<svg width="32" height="33" viewBox="0 0 32 33" fill="none" xmlns="http://www.w3.org/2000/svg">
<path id="Vector" d="M16 0.831299C11.6533 0.831299 11.1107 0.851313 9.404 0.927368C7.7 1.00743 6.54 1.27562 5.52 1.6719C4.468 2.0802 3.57467 2.62859 2.68533 3.51856C1.796 4.40854 1.24667 5.30118 0.84 6.35527C0.444 7.376 0.174667 8.53684 0.096 10.2421C0.016 11.95 0 12.493 0 16.8428C0 21.1926 0.02 21.7356 0.096 23.4436C0.176 25.1475 0.444 26.3096 0.84 27.3303C1.248 28.3818 1.796 29.277 2.68533 30.1671C3.57467 31.0557 4.46667 31.6067 5.52 32.0137C6.54133 32.4087 7.70133 32.6795 9.404 32.7583C11.1107 32.8383 11.6533 32.8543 16 32.8543C20.3467 32.8543 20.8893 32.8343 22.596 32.7583C24.2987 32.6782 25.46 32.4087 26.48 32.0137C27.5307 31.6054 28.4253 31.0557 29.3147 30.1671C30.2027 29.277 30.7533 28.3858 31.16 27.3303C31.5547 26.3096 31.8253 25.1475 31.904 23.4436C31.984 21.7356 32 21.1926 32 16.8428C32 12.493 31.98 11.95 31.904 10.2421C31.824 8.53817 31.5547 7.37467 31.16 6.35527C30.752 5.30251 30.2027 4.40854 29.3147 3.51856C28.4253 2.62859 27.5347 2.07887 26.48 1.6719C25.46 1.27562 24.2987 1.00609 22.596 0.927368C20.8893 0.84731 20.3467 0.831299 16 0.831299ZM16 3.71337C20.2707 3.71337 20.78 3.73472 22.4667 3.80811C24.0267 3.88149 24.8733 4.14035 25.436 4.36184C26.1853 4.65138 26.716 4.99829 27.2787 5.55737C27.8373 6.11777 28.184 6.65015 28.4733 7.40002C28.692 7.9631 28.9533 8.81037 29.024 10.3715C29.1 12.0607 29.1173 12.5677 29.1173 16.8428C29.1173 21.1179 29.0973 21.6262 29.0187 23.3142C28.9373 24.8753 28.6773 25.7225 28.4573 26.2856C28.1587 27.0354 27.8187 27.5665 27.2587 28.1296C26.7 28.6886 26.16 29.0356 25.4187 29.3251C24.8587 29.5439 23.9987 29.8054 22.4387 29.8762C20.74 29.9522 20.24 29.9695 15.96 29.9695C11.6787 29.9695 11.1787 29.9495 9.48133 29.8709C7.92 29.7894 7.06 29.5292 6.5 29.3091C5.74133 29.0103 5.22 28.67 4.66133 28.1096C4.1 27.5505 3.74133 27.0101 3.46133 26.2683C3.24133 25.7079 2.98267 24.8473 2.90133 23.2861C2.84133 21.6049 2.82 21.0859 2.82 16.8228C2.82 12.5584 2.84133 12.0381 2.90133 10.3368C2.98267 8.77568 3.24133 7.91639 3.46133 7.35599C3.74133 6.59544 4.1 6.07507 4.66133 5.51333C5.22 4.95426 5.74133 4.594 6.5 4.31513C7.06 4.09364 7.90133 3.83346 9.46133 3.7534C11.1613 3.69336 11.6613 3.67334 15.94 3.67334L16 3.71337ZM16 8.6209C11.46 8.6209 7.784 12.3035 7.784 16.8428C7.784 21.3861 11.464 25.0647 16 25.0647C20.54 25.0647 24.216 21.3821 24.216 16.8428C24.216 12.2995 20.536 8.6209 16 8.6209ZM16 22.1799C13.0533 22.1799 10.6667 19.7916 10.6667 16.8428C10.6667 13.894 13.0533 11.5057 16 11.5057C18.9467 11.5057 21.3333 13.894 21.3333 16.8428C21.3333 19.7916 18.9467 22.1799 16 22.1799ZM26.4613 8.29667C26.4613 9.35743 25.6 10.218 24.5413 10.218C23.4813 10.218 22.6213 9.3561 22.6213 8.29667C22.6213 7.23723 23.4827 6.37662 24.5413 6.37662C25.5987 6.37528 26.4613 7.23723 26.4613 8.29667Z" fill="white"/>
</svg>
