<svg width="32" height="24" viewBox="0 0 32 24" fill="none" xmlns="http://www.w3.org/2000/svg">
<path id="Vector" d="M31.3307 4.08515C31.1499 3.40369 30.7934 2.78173 30.2968 2.28154C29.8003 1.78135 29.1811 1.42049 28.5013 1.2351C26.0067 0.561279 16 0.561279 16 0.561279C16 0.561279 5.99333 0.561279 3.49733 1.2351C2.81788 1.42082 2.19906 1.78181 1.70277 2.28196C1.20648 2.78212 0.850122 3.40391 0.669333 4.08515C0 6.59896 0 11.8427 0 11.8427C0 11.8427 0 17.0865 0.669333 19.6003C0.850115 20.2818 1.20663 20.9037 1.70319 21.4039C2.19974 21.9041 2.8189 22.2649 3.49867 22.4504C5.99333 23.1241 16 23.1241 16 23.1241C16 23.1241 26.0067 23.1241 28.5027 22.4504C29.1825 22.2651 29.8017 21.9043 30.2983 21.4041C30.7949 20.9038 31.1513 20.2818 31.332 19.6003C32 17.0865 32 11.8427 32 11.8427C32 11.8427 32 6.59896 31.3307 4.08515ZM12.7267 16.6035V7.08201L21.0907 11.8427L12.7267 16.6035Z" fill="white"/>
</svg>
